<svg xmlns="http://www.w3.org/2000/svg" width="239.5" height="38.711" viewBox="0 0 239.5 38.711">
  <g id="Group_1385" data-name="Group 1385" transform="translate(0 -0.075)">
    <g id="Group_1383" data-name="Group 1383" transform="translate(0 0.075)">
      <g id="Group_1381" data-name="Group 1381" transform="translate(0 10.995)">
        <path id="Path_308" data-name="Path 308" d="M1.405,40.347A1.393,1.393,0,0,1,0,38.941V14.718a1.319,1.319,0,0,1,.661-1.157,1.269,1.269,0,0,1,1.323,0L23.065,24.97l11.078-6.283a1.39,1.39,0,0,1,1.405,2.4l-11.739,6.7a1.269,1.269,0,0,1-1.323,0L2.728,16.951V38.941A1.378,1.378,0,0,1,1.405,40.347Z" transform="translate(0 -13.375)" fill="#e91c6a"/>
      </g>
      <g id="Group_1382" data-name="Group 1382">
        <path id="Path_309" data-name="Path 309" d="M44.477,38.786a1.393,1.393,0,0,1-1.405-1.405V3.9L23.809,16.051a1.42,1.42,0,0,1-1.405,0L.661,3.733a1.451,1.451,0,0,1-.5-1.9,1.374,1.374,0,0,1,1.9-.5l21,11.9L43.816.261a1.42,1.42,0,0,1,1.405,0,1.426,1.426,0,0,1,.744,1.24V37.546A1.452,1.452,0,0,1,44.477,38.786Z" transform="translate(0 -0.075)" fill="#e91c6a"/>
      </g>
    </g>
    <g id="Group_1384" data-name="Group 1384" transform="translate(76.058 8.611)">
      <path id="Path_310" data-name="Path 310" d="M92,11.857A1.182,1.182,0,0,1,93.157,10.7h.248a1.319,1.319,0,0,1,1.157.661l7.523,11.326,7.523-11.326a1.319,1.319,0,0,1,1.157-.661h.248a1.182,1.182,0,0,1,1.157,1.157V30.872a1.2,1.2,0,1,1-2.4,0V15.082L103,25a1.079,1.079,0,0,1-.992.579,1.261,1.261,0,0,1-.992-.579l-6.7-9.921V30.789a1.157,1.157,0,0,1-2.315,0V11.857Z" transform="translate(-92 -10.452)" fill="#e91c6a"/>
      <path id="Path_311" data-name="Path 311" d="M129.4,11.74a1.2,1.2,0,1,1,2.4,0V30.755a1.271,1.271,0,0,1-1.24,1.24,1.2,1.2,0,0,1-1.157-1.24Z" transform="translate(-98.481 -10.417)" fill="#e91c6a"/>
      <path id="Path_312" data-name="Path 312" d="M145.2,11.94a1.26,1.26,0,0,1,1.157-1.24h7.936a8.14,8.14,0,0,1,6.035,2.149,5.872,5.872,0,0,1,1.653,4.134v.083c0,3.472-2.315,5.456-5.622,6.118l5.208,6.779a1.328,1.328,0,0,1,.413.909,1.2,1.2,0,0,1-1.24,1.157,1.425,1.425,0,0,1-1.157-.661l-5.952-7.688H147.6v7.11a1.271,1.271,0,0,1-1.24,1.24,1.2,1.2,0,0,1-1.157-1.24Zm8.929,9.59c3.142,0,5.456-1.653,5.456-4.382v-.083c0-2.563-1.984-4.134-5.374-4.134H147.68v8.6Z" transform="translate(-101.219 -10.452)" fill="#e91c6a"/>
      <path id="Path_313" data-name="Path 313" d="M175.465,30.241l8.6-18.766a1.589,1.589,0,0,1,1.488-1.075h.083a1.514,1.514,0,0,1,1.488,1.075l8.6,18.766a2.1,2.1,0,0,1,.165.579,1.13,1.13,0,0,1-1.157,1.157,1.24,1.24,0,0,1-1.157-.909l-2.232-4.878H179.764l-2.232,4.878a1.243,1.243,0,0,1-1.157.827A1.094,1.094,0,0,1,175.3,30.82,2.1,2.1,0,0,1,175.465,30.241Zm14.964-6.2-4.878-10.83-4.878,10.83Z" transform="translate(-106.434 -10.4)" fill="#e91c6a"/>
      <path id="Path_314" data-name="Path 314" d="M213.7,23.5l-7.854-10.913a1.4,1.4,0,0,1-.248-.827,1.2,1.2,0,0,1,1.24-1.157,1.523,1.523,0,0,1,1.157.744l6.944,10.086,7.027-10.086c.331-.413.579-.744,1.157-.744a1.182,1.182,0,0,1,1.157,1.157,1.734,1.734,0,0,1-.331.909L216.1,23.5v7.275a1.24,1.24,0,1,1-2.48,0V23.5Z" transform="translate(-111.685 -10.435)" fill="#e91c6a"/>
      <path id="Path_315" data-name="Path 315" d="M233.565,30.241l8.6-18.766a1.589,1.589,0,0,1,1.488-1.075h.083a1.514,1.514,0,0,1,1.488,1.075l8.6,18.684a2.1,2.1,0,0,1,.165.579,1.13,1.13,0,0,1-1.157,1.157,1.24,1.24,0,0,1-1.157-.909l-2.232-4.878H237.864l-2.232,4.878a1.243,1.243,0,0,1-1.157.827,1.094,1.094,0,0,1-1.075-1.075A.816.816,0,0,1,233.565,30.241Zm14.881-6.2-4.878-10.83-4.878,10.83Z" transform="translate(-116.502 -10.4)" fill="#e91c6a"/>
      <path id="Path_316" data-name="Path 316" d="M269.2,11.74a1.2,1.2,0,1,1,2.4,0v8.35H283.75V11.74a1.271,1.271,0,0,1,1.24-1.24,1.2,1.2,0,0,1,1.157,1.24V30.755a1.2,1.2,0,1,1-2.4,0V22.322H271.6v8.433a1.271,1.271,0,0,1-1.24,1.24,1.2,1.2,0,0,1-1.157-1.24Z" transform="translate(-122.706 -10.417)" fill="#e91c6a"/>
    </g>
  </g>
</svg>
