<svg id="Group_1441" data-name="Group 1441" xmlns="http://www.w3.org/2000/svg" width="141.1" height="141.6" viewBox="0 0 141.1 141.6">
  <g id="Group_1375" data-name="Group 1375">
    <g id="Group_1373" data-name="Group 1373">
      <path id="Path_284" data-name="Path 284" d="M44.3,94.8a1.685,1.685,0,0,1-1.7-1.7V63.8a1.6,1.6,0,0,1,.8-1.4,1.535,1.535,0,0,1,1.6,0L70.5,76.2,84,68.4a1.681,1.681,0,0,1,1.7,2.9L71.5,79.4a1.535,1.535,0,0,1-1.6,0l-24-12.9V93.1A1.666,1.666,0,0,1,44.3,94.8Z" fill="#fff"/>
    </g>
    <g id="Group_1374" data-name="Group 1374">
      <path id="Path_285" data-name="Path 285" d="M96.4,95.7A1.685,1.685,0,0,1,94.7,94V53.5L71.4,68.2a1.718,1.718,0,0,1-1.7,0L43.4,53.3a1.681,1.681,0,1,1,1.7-2.9L70.5,64.8,95.6,49a1.75,1.75,0,0,1,2.6,1.5V94.1A1.759,1.759,0,0,1,96.4,95.7Z" fill="#fff"/>
    </g>
  </g>
  <g id="Group_1376" data-name="Group 1376">
    <path id="Path_286" data-name="Path 286" d="M30.7,11.9a.55.55,0,0,1,.5.3l6.6,8.3a1.421,1.421,0,0,1,.2.6.55.55,0,0,1-.3.5,1.421,1.421,0,0,1-.6.2.55.55,0,0,1-.5-.3l-4.8-6.1,1.8,8.4a1.135,1.135,0,0,1-.3.8.972.972,0,0,1-.9.1l-7.6-3.5,4.8,6a1.421,1.421,0,0,1,.2.6.55.55,0,0,1-.3.5,1.421,1.421,0,0,1-.6.2.55.55,0,0,1-.5-.3l-6.6-8.3a1.421,1.421,0,0,1-.2-.6.55.55,0,0,1,.3-.5.755.755,0,0,1,.8-.1l9.4,4.4L29.8,13a.67.67,0,0,1,.3-.8Q30.4,11.75,30.7,11.9Z" fill="#fff"/>
    <path id="Path_287" data-name="Path 287" d="M45.1,17.5a1,1,0,0,1-.5-.4L40.2,7.5a.638.638,0,0,1,0-.6c.1-.2.2-.4.4-.4a.637.637,0,0,1,.6,0,1,1,0,0,1,.5.4l4.4,9.6a.638.638,0,0,1,0,.6,1,1,0,0,1-.4.5A1.268,1.268,0,0,1,45.1,17.5Z" fill="#fff"/>
    <path id="Path_288" data-name="Path 288" d="M61.1,12a1.268,1.268,0,0,1-.1.6.55.55,0,0,1-.5.3.778.778,0,0,1-.8-.2L56.2,9l-.3.1-2,.5.9,3.8a.661.661,0,0,1-.1.6,1,1,0,0,1-.5.4.661.661,0,0,1-.6-.1,1,1,0,0,1-.4-.5L50.8,3.4a.661.661,0,0,1,.1-.6,1,1,0,0,1,.5-.4l2.7-.6a3.732,3.732,0,0,1,2.1,0,3.669,3.669,0,0,1,1.7,1,3.1,3.1,0,0,1,.9,1.8,3.378,3.378,0,0,1-.1,2,3.11,3.11,0,0,1-1.2,1.6l3.2,3.2A.723.723,0,0,1,61.1,12ZM55.5,7.6a2.944,2.944,0,0,0,1.6-1,1.747,1.747,0,0,0,.3-1.7,2.165,2.165,0,0,0-1.1-1.5,2.438,2.438,0,0,0-1.9-.2l-2,.5,1,4.4Z" fill="#fff"/>
    <path id="Path_289" data-name="Path 289" d="M76.5,11.5a1.421,1.421,0,0,1-.2.6.735.735,0,0,1-.6.2c-.2,0-.3-.1-.4-.1a1.381,1.381,0,0,1-.3-.4l-.8-2.2-5.6-.1-.9,2.2a1.38,1.38,0,0,1-.3.4.6.6,0,0,1-.4.1.864.864,0,0,1-.6-.3,1.421,1.421,0,0,1-.2-.6.756.756,0,0,1,.1-.4L70.9.5c0-.3.2-.5.6-.5s.6.2.8.6l4.2,10.6ZM69.1,8.1l4.5.1L71.5,2.6Z" fill="#fff"/>
    <path id="Path_290" data-name="Path 290" d="M82.8,13.4a.661.661,0,0,1-.1-.6L85,2.4a1,1,0,0,1,.4-.5,1.268,1.268,0,0,1,.6-.1,1,1,0,0,1,.5.4,1.268,1.268,0,0,1,.1.6L84.2,13.1a1,1,0,0,1-.4.5.661.661,0,0,1-.6.1C83,13.7,82.9,13.5,82.8,13.4Z" fill="#fff"/>
    <path id="Path_291" data-name="Path 291" d="M99.9,19.2a.7.7,0,0,1-.5.4.637.637,0,0,1-.6,0c-.1-.1-.3-.2-.3-.3a4.331,4.331,0,0,1-.1-.5l.1-2.4L93.4,14l-1.7,1.6a.758.758,0,0,1-.4.2.9.9,0,0,1-.5-.1,1,1,0,0,1-.4-.5.638.638,0,0,1,0-.6c0-.1.1-.2.2-.3L99,6.8a.8.8,0,0,1,.9-.2.891.891,0,0,1,.5.8L100,18.8A.756.756,0,0,0,99.9,19.2Zm-5.5-6.1L98.5,15l.3-6Z" fill="#fff"/>
    <path id="Path_292" data-name="Path 292" d="M104.8,23.1a1.421,1.421,0,0,1,.2-.6l7-8a.713.713,0,0,1,.6-.3,1.421,1.421,0,0,1,.6.2.713.713,0,0,1,.3.6,1.421,1.421,0,0,1-.2.6L110.4,19l5.5,4.8,2.9-3.4a.713.713,0,0,1,.6-.3,1.421,1.421,0,0,1,.6.2.55.55,0,0,1,.3.5,1.421,1.421,0,0,1-.2.6l-7,8a.713.713,0,0,1-.6.3,1.421,1.421,0,0,1-.6-.2.713.713,0,0,1-.3-.6,1.421,1.421,0,0,1,.2-.6l3.1-3.5L109.4,20l-3.1,3.5a.713.713,0,0,1-.6.3,1.421,1.421,0,0,1-.6-.2C104.9,23.5,104.9,23.3,104.8,23.1Z" fill="#fff"/>
  </g>
  <g id="Group_1377" data-name="Group 1377">
    <path id="Path_293" data-name="Path 293" d="M3.2,50.6a.749.749,0,0,1,.5-.1l10.7,2.6c.2,0,.3.1.4.3a.749.749,0,0,1,.1.5l-1,3.9a5.306,5.306,0,0,1-.8,1.7,2.805,2.805,0,0,1-1.4,1,2.917,2.917,0,0,1-1.6.1,2.223,2.223,0,0,1-1.3-.8,3.479,3.479,0,0,1-.7-1.5,3.607,3.607,0,0,1-1.5,1.5,2.96,2.96,0,0,1-2.1.2,4.608,4.608,0,0,1-1.7-.9,3.5,3.5,0,0,1-.9-1.7,4.956,4.956,0,0,1,0-2.1l1-4.1A3.329,3.329,0,0,1,3.2,50.6Zm-.1,4.9a2.96,2.96,0,0,0,.2,2.1,2.292,2.292,0,0,0,1.5,1.2,1.891,1.891,0,0,0,1.8-.3,3.267,3.267,0,0,0,1.1-1.8l.9-3.6L3.9,52Zm5.8,1.2A2.415,2.415,0,0,0,9,58.4a1.946,1.946,0,0,0,1.3,1,1.569,1.569,0,0,0,1.5-.3,2.747,2.747,0,0,0,.9-1.5l.8-3.3-3.8-.9Z" fill="#fff"/>
    <path id="Path_294" data-name="Path 294" d="M.3,66.8a.758.758,0,0,1,.4-.2l11,.2a.52.52,0,0,1,.4.2.764.764,0,0,1,.2.5l-.1,7.8c0,.2-.1.3-.2.5a.758.758,0,0,1-.4.2.52.52,0,0,1-.4-.2.764.764,0,0,1-.2-.5l.1-7.1L6.8,68l-.1,5.2c0,.2-.1.3-.2.5a.758.758,0,0,1-.4.2.52.52,0,0,1-.4-.2.764.764,0,0,1-.2-.5L5.7,68l-4.4-.1L1.2,75c0,.2-.1.3-.2.5a.758.758,0,0,1-.4.2.52.52,0,0,1-.4-.2c-.1-.2-.2-.3-.2-.5l.1-7.8A.52.52,0,0,1,.3,66.8Z" fill="#fff"/>
    <path id="Path_295" data-name="Path 295" d="M3.7,92.4a.9.9,0,0,1-.5-.1c-.1,0-.2-.2-.3-.3a.618.618,0,0,1,.2-.7l2.2-1.6L4,83.4l-2.7-.5c-.3,0-.4-.2-.5-.5a.9.9,0,0,1,.1-.5,1.381,1.381,0,0,1,.4-.3h.3l11.7,2.3c.3.1.5.2.6.5s0,.5-.3.7L4,92.3A.367.367,0,0,1,3.7,92.4Zm1.4-8.8L6.3,89l5.5-4.1Z" fill="#fff"/>
    <path id="Path_296" data-name="Path 296" d="M6.8,100.9A3.956,3.956,0,0,1,9,97l6.7-3.5a.454.454,0,0,1,.5,0,1.38,1.38,0,0,1,.4.3.9.9,0,0,1,.1.5c0,.2-.1.3-.3.4L9.7,98.2a3.447,3.447,0,0,0-1.2,1.2,3.287,3.287,0,0,0-.4,1.7,4.145,4.145,0,0,0,.6,2,4.172,4.172,0,0,0,1.3,1.6,3.287,3.287,0,0,0,1.6.7,2.593,2.593,0,0,0,1.7-.3l6.7-3.5a.454.454,0,0,1,.5,0,1.38,1.38,0,0,1,.4.3.9.9,0,0,1,.1.5c0,.2-.1.3-.3.4L14,106.3a3.659,3.659,0,0,1-2.3.4,4.69,4.69,0,0,1-2.2-.9,6.038,6.038,0,0,1-1.7-2.1A5.615,5.615,0,0,1,6.8,100.9Z" fill="#fff"/>
    <path id="Path_297" data-name="Path 297" d="M29.8,113.5a.52.52,0,0,1-.2.4.6.6,0,0,1-.4.1.52.52,0,0,1-.4-.2l-2.6-3-7.9,6.9c-.1.1-.3.2-.4.1a.52.52,0,0,1-.4-.2.764.764,0,0,1-.2-.5.52.52,0,0,1,.2-.4l7.9-6.9-2.6-3a.758.758,0,0,1-.2-.4.52.52,0,0,1,.2-.4c.1-.1.3-.2.4-.1a.52.52,0,0,1,.4.2l6,6.9C29.8,113.2,29.9,113.3,29.8,113.5Z" fill="#fff"/>
    <path id="Path_298" data-name="Path 298" d="M40.3,121.5c0,.2,0,.3-.1.4s-.2.2-.3.2l-7.6,2.8L30,128.1a.52.52,0,0,1-.4.2.9.9,0,0,1-.5-.1,1.38,1.38,0,0,1-.3-.4.9.9,0,0,1,.1-.5l2.3-3.2.3-8.1c0-.2,0-.3.1-.4a.52.52,0,0,1,.4-.2.9.9,0,0,1,.5.1l.2.2c0,.1.1.2.1.3l-.4,7.5,7-2.6c.1,0,.3-.1.4,0,.1,0,.2.1.3.1C40.2,121.2,40.2,121.3,40.3,121.5Z" fill="#fff"/>
    <path id="Path_299" data-name="Path 299" d="M57.1,139.9q0,.15-.3.3a.9.9,0,0,1-.5.1.536.536,0,0,1-.4-.3l-1.3-2.2-.4.2a12.782,12.782,0,0,1-2.2.9,3.377,3.377,0,0,1-2-.1,4.753,4.753,0,0,1-2.3-1.4,2.644,2.644,0,0,1-.4-2.3,2.919,2.919,0,0,1,1.1-1.6,11.359,11.359,0,0,1,2.5-1.3l.2-.1-.6-1.1a3.607,3.607,0,0,1-.5-2.6,2.1,2.1,0,0,1,.7-1.1,2.725,2.725,0,0,1,1.2-.6,2.573,2.573,0,0,1,1.5.1,3.694,3.694,0,0,1,1.4.7,2.55,2.55,0,0,1,.8,1.2,3.3,3.3,0,0,1,0,1.4,3.39,3.39,0,0,1-.9,1.4,6.071,6.071,0,0,1-1.8,1l-.2.1,2.3,3.7,1.7-1a1.087,1.087,0,0,1,.5-.1c.1,0,.2.1.3.2a.6.6,0,0,1,.1.4q0,.15-.3.3l-1.8,1,1.3,2.2A.778.778,0,0,1,57.1,139.9Zm-3-3.1-2.4-3.9-.4.1a8.158,8.158,0,0,0-1.9,1,2.577,2.577,0,0,0-.8,1.3,2,2,0,0,0,.2,1.5,2.747,2.747,0,0,0,1.5.9,2.9,2.9,0,0,0,1.6,0,10.827,10.827,0,0,0,1.8-.7Zm-1.8-5.1.4-.1a2.822,2.822,0,0,0,2-1.8,1.323,1.323,0,0,0-.2-1.2,1.879,1.879,0,0,0-1.1-.8,1.9,1.9,0,0,0-1.3.1,1.765,1.765,0,0,0-.8.9,1.388,1.388,0,0,0,0,.9,6.894,6.894,0,0,0,.4,1Z" fill="#fff"/>
    <path id="Path_300" data-name="Path 300" d="M85.2,128.2a.52.52,0,0,1,.2.4v.3l-2,11.2a.707.707,0,0,1-.6.6c-.2,0-.3,0-.4-.1l-.3-.3-3.9-8.8L76.7,141a.707.707,0,0,1-.6.6c-.2,0-.3,0-.4-.1l-.3-.3-4.8-10.3c0-.1-.1-.2-.1-.3,0-.2,0-.3.1-.4a.52.52,0,0,1,.4-.2.755.755,0,0,1,.7.4l4.1,9,1.5-9.5c0-.1.1-.2.2-.3s.2-.1.4-.2a.6.6,0,0,1,.4.1c.1.1.2.1.3.3l3.9,8.7,1.6-9.8c.1-.3.2-.4.6-.5A.33.33,0,0,1,85.2,128.2Z" fill="#fff"/>
    <path id="Path_301" data-name="Path 301" d="M93.9,137.5q-.3-.15-.3-.3l-4.3-10.1a.454.454,0,0,1,0-.5c.1-.2.2-.3.4-.3l7.2-3a.454.454,0,0,1,.5,0q.3.15.3.3a.454.454,0,0,1,0,.5c-.1.1-.2.3-.4.3l-6.6,2.8,1.7,4,4.8-2a.454.454,0,0,1,.5,0q.3.15.3.3a.454.454,0,0,1,0,.5c-.1.2-.2.3-.4.3l-4.8,2,1.7,4,6.6-2.8a.454.454,0,0,1,.5,0q.3.15.3.3a.454.454,0,0,1,0,.5c-.1.2-.2.3-.4.3l-7.2,3A1,1,0,0,1,93.9,137.5Z" fill="#fff"/>
    <path id="Path_302" data-name="Path 302" d="M108.5,130.3a.52.52,0,0,1-.4-.2l-6.4-8.9a.749.749,0,0,1-.1-.5c0-.2.1-.3.3-.4s.3-.2.5-.1a.52.52,0,0,1,.4.2l6.1,8.5,5.3-3.8c.2-.1.3-.2.5-.1a.52.52,0,0,1,.4.2.6.6,0,0,1,.1.4c0,.2-.1.3-.3.4l-5.8,4.2A1.268,1.268,0,0,1,108.5,130.3Z" fill="#fff"/>
    <path id="Path_303" data-name="Path 303" d="M120.4,120.6c-.2,0-.3,0-.4-.1l-8.2-7.3a.758.758,0,0,1-.2-.4c0-.2.1-.3.2-.5a.758.758,0,0,1,.4-.2c.2,0,.3,0,.4.2l7.8,7,4.3-4.8a.758.758,0,0,1,.4-.2c.2,0,.3,0,.4.1a.52.52,0,0,1,.2.4c0,.2-.1.3-.2.5l-4.8,5.3C120.7,120.5,120.6,120.6,120.4,120.6Z" fill="#fff"/>
    <path id="Path_304" data-name="Path 304" d="M130.1,108.5c-.2.1-.3,0-.5,0l-9.7-5.1c-.2-.1-.3-.2-.3-.4a.9.9,0,0,1,.1-.5c.1-.2.2-.3.4-.3l12.4-2.4-8.3-4.4c-.2-.1-.3-.2-.3-.4a.9.9,0,0,1,.1-.5c.1-.2.2-.3.4-.3.2-.1.3,0,.5,0l9.7,5.1a1.38,1.38,0,0,1,.3.4.9.9,0,0,1-.1.5c-.1.2-.2.3-.4.3L122,102.9l8.3,4.4a1.38,1.38,0,0,1,.3.4.9.9,0,0,1-.1.5A1.381,1.381,0,0,0,130.1,108.5Z" fill="#fff"/>
    <path id="Path_305" data-name="Path 305" d="M137.7,91.4a.749.749,0,0,1-.5.1L126.5,89c-.2,0-.3-.1-.4-.3a.9.9,0,0,1-.1-.5l1.8-7.6c0-.2.1-.3.3-.4a.749.749,0,0,1,.5-.1c.2,0,.3.1.4.3a.749.749,0,0,1,.1.5l-1.6,6.9,4.2,1,1.2-5.1c0-.2.1-.3.3-.4a.749.749,0,0,1,.5-.1c.2,0,.3.1.4.3a.9.9,0,0,1,.1.5L133,89.1l4.3,1,1.6-6.9c0-.2.1-.3.3-.4a.6.6,0,0,1,.4-.1c.2,0,.3.1.4.3a.749.749,0,0,1,.1.5L138,91A1.38,1.38,0,0,1,137.7,91.4Z" fill="#fff"/>
    <path id="Path_306" data-name="Path 306" d="M140.1,74.2a3.506,3.506,0,0,1-1.7,1.7c-.1,0-.2.1-.3.1a.758.758,0,0,1-.4-.2.749.749,0,0,1-.1-.5.6.6,0,0,1,.1-.4l.3-.3a2.562,2.562,0,0,0,1.2-1.3,4.648,4.648,0,0,0,.5-2.1,3.8,3.8,0,0,0-.6-2.2,2.227,2.227,0,0,0-1.7-.9,2.193,2.193,0,0,0-1.7.7,3.737,3.737,0,0,0-.9,2.3,5.917,5.917,0,0,1-1.2,3,2.99,2.99,0,0,1-2.3,1.1,2.271,2.271,0,0,1-1.6-.6,4.177,4.177,0,0,1-1.1-1.5,5.115,5.115,0,0,1-.3-2.2,4.383,4.383,0,0,1,.6-2.3,3.607,3.607,0,0,1,1.5-1.5c.1-.1.2-.1.4-.1a.55.55,0,0,1,.5.3c0,.1.1.2.1.3a.367.367,0,0,1-.1.3c-.1.1-.1.2-.2.3a3.124,3.124,0,0,0-1.4,2.8,4.064,4.064,0,0,0,.5,2.1,1.645,1.645,0,0,0,1.5.8c1.2,0,2-1,2.3-3.1a5.929,5.929,0,0,1,1.2-3.1,2.965,2.965,0,0,1,2.4-1,3.077,3.077,0,0,1,1.9.6,3.978,3.978,0,0,1,1.2,1.6,5.381,5.381,0,0,1,.4,2.2A10.257,10.257,0,0,1,140.1,74.2Z" fill="#fff"/>
    <path id="Path_307" data-name="Path 307" d="M139.1,58.6a3.79,3.79,0,0,1-1.3,2.1c-.1.1-.1.1-.2.1a.6.6,0,0,1-.4-.1.52.52,0,0,1-.2-.4v-.4c0-.1.1-.2.2-.3a2.443,2.443,0,0,0,.8-1.5,4.932,4.932,0,0,0,0-2.1,3.511,3.511,0,0,0-1.1-2,2.051,2.051,0,0,0-1.9-.4,2.3,2.3,0,0,0-1.5,1.1,4.4,4.4,0,0,0-.3,2.4,6.254,6.254,0,0,1-.4,3.2,2.706,2.706,0,0,1-2,1.6,2.464,2.464,0,0,1-1.7-.2,3.916,3.916,0,0,1-1.4-1.2,4.447,4.447,0,0,1-.8-2,4.871,4.871,0,0,1,0-2.4,5.244,5.244,0,0,1,1-1.8c.1-.1.2-.2.3-.2.2,0,.4,0,.5.2a.367.367,0,0,1,.1.3V55c0,.1-.1.2-.2.3a2.937,2.937,0,0,0-.7,3,3.791,3.791,0,0,0,1,2,1.731,1.731,0,0,0,1.7.4c1.2-.3,1.7-1.4,1.5-3.5a5.5,5.5,0,0,1,.5-3.3,2.805,2.805,0,0,1,2.1-1.5,3.378,3.378,0,0,1,2,.1,4.427,4.427,0,0,1,1.5,1.2,7.218,7.218,0,0,1,.9,2A7.079,7.079,0,0,1,139.1,58.6Z" fill="#fff"/>
  </g>
  <g id="Group_1378" data-name="Group 1378">
    <circle id="Ellipse_30" data-name="Ellipse 30" cx="1.9" cy="1.9" r="1.9" transform="translate(123.9 37.4)" fill="#fff"/>
  </g>
  <g id="Group_1379" data-name="Group 1379">
    <circle id="Ellipse_31" data-name="Ellipse 31" cx="1.9" cy="1.9" r="1.9" transform="translate(15.4 37.4)" fill="#fff"/>
  </g>
</svg>
